# Blender 4.2.3 LTS
# www.blender.org
mtllib lamps.mtl
o lamps_lamp.003
o lamps_lamp.007
v -0.473220 2.957905 13.759743
v 0.457039 2.957905 13.759743
v 0.457039 2.975953 13.819357
v -0.473220 2.975953 13.819357
v -0.465970 3.043694 13.803476
v 0.211314 2.993367 13.713509
v 0.485445 2.999041 13.745264
v -0.465970 3.016004 13.840133
v -0.508242 2.999041 13.745263
v 0.447125 3.016004 13.840133
v -0.229866 3.016004 13.840133
v 0.211314 3.043694 13.803476
v 0.447125 3.043694 13.803476
v -0.465970 2.993367 13.713509
v 0.447125 2.993367 13.713509
v 0.211314 3.016004 13.840133
v -0.011106 3.043694 13.784878
v -0.011106 2.993367 13.713509
v -0.011106 3.016004 13.840133
v -0.229866 2.993367 13.713509
v -0.229866 3.043694 13.803476
v -0.229866 3.043694 13.750366
v -0.465970 3.043694 13.750366
v 0.211314 3.043694 13.750366
v -0.508242 3.010360 13.808575
v 0.447125 3.043694 13.750366
v -0.011106 3.043694 13.750366
v 0.485445 3.010360 13.808576
v -0.011106 3.056433 13.793083
v 0.006419 3.043694 13.803476
v -0.028632 3.043694 13.803476
v -0.011106 3.043694 13.822076
v -0.011106 3.125431 13.818558
v -0.000983 3.054525 13.803476
v -0.021230 3.054525 13.803476
v -0.011106 3.052616 13.813869
v -0.011106 3.233963 13.880585
v -0.000983 3.120660 13.828125
v -0.021230 3.120660 13.828125
v -0.011106 3.115890 13.837692
v -0.011106 3.326523 13.985857
v -0.000983 3.227378 13.889003
v -0.021230 3.227377 13.889003
v -0.011106 3.220792 13.897421
v -0.011106 3.377282 14.121320
v -0.000983 3.317933 13.992002
v -0.021230 3.317933 13.992002
v -0.011106 3.309342 13.998148
v -0.011106 3.382456 14.219807
v -0.000983 3.380682 14.208531
v -0.021230 3.367991 14.128015
v -0.011106 3.371568 14.215572
v -0.011106 3.389796 14.201490
v -0.011106 3.358701 14.134712
v -0.000983 3.367991 14.128015
v -0.021230 3.380682 14.208531
v 0.447125 2.943040 13.703309
v -0.508242 2.977026 13.813674
v -0.497674 2.994786 13.721448
v 0.485445 2.977026 13.813675
v 0.475865 2.994786 13.721448
v -0.465970 2.988315 13.850334
v 0.475865 3.014593 13.832243
v -0.497674 3.014593 13.832243
v 0.447125 3.031112 13.727824
v -0.497674 3.035360 13.804750
v 0.475865 3.035360 13.804750
v -0.465970 3.036771 13.825868
v 0.447125 3.036771 13.825868
v 0.211314 3.036771 13.825868
v -0.465970 2.943040 13.703309
v -0.229866 2.943040 13.703309
v 0.447125 2.988315 13.850334
v 0.211314 2.988315 13.850334
v -0.465970 3.031112 13.727824
v -0.229866 3.031112 13.727824
v -0.385808 3.016004 13.840133
v 0.369013 3.016004 13.840133
v -0.385808 3.043694 13.803476
v 0.369013 3.043694 13.803476
v -0.385808 2.993367 13.713509
v 0.369014 2.993367 13.713509
v -0.229866 2.988315 13.850334
v -0.229866 3.036771 13.825868
v 0.211314 3.031112 13.727824
v 0.211314 2.943040 13.703309
v 0.056962 3.016004 13.840133
v 0.056962 3.043694 13.750366
v 0.056962 2.993367 13.713509
v -0.011106 3.036771 13.830517
v -0.011106 2.988315 13.850334
v -0.011106 3.031112 13.727824
v -0.011106 2.943040 13.703309
v -0.078260 3.016004 13.840133
v -0.078260 2.993367 13.713509
v -0.078260 3.043694 13.750366
v -0.082642 3.043694 13.803476
v 0.061344 3.043694 13.803476
v 0.475865 3.032531 13.749090
v 0.485445 2.954389 13.740163
v 0.369013 3.043694 13.750366
v -0.508242 2.954389 13.740162
v -0.497674 3.032531 13.749090
v -0.385808 3.043694 13.750366
v -0.229866 3.043694 13.776972
v -0.465970 3.043694 13.776972
v 0.211314 3.043693 13.776972
v -0.508242 3.004708 13.776968
v 0.447125 3.043693 13.776972
v -0.011106 3.043694 13.772322
v 0.485445 3.004708 13.776969
v -0.011106 3.045924 13.816095
v -0.023080 3.046401 13.803476
v 0.000867 3.046401 13.803476
v -0.011106 3.046879 13.790856
v 0.002038 3.043694 13.789527
v -0.024251 3.043694 13.789527
v 0.002038 3.043694 13.817426
v -0.024251 3.043694 13.817426
v -0.011106 3.072896 13.819650
v -0.021230 3.076474 13.809638
v -0.000983 3.076474 13.809638
v -0.011106 3.080052 13.799627
v -0.003514 3.055956 13.795681
v -0.018699 3.055956 13.795681
v -0.003514 3.053093 13.811272
v -0.018699 3.053093 13.811272
v -0.011106 3.169291 13.864712
v -0.021230 3.174992 13.855669
v -0.000983 3.174992 13.855669
v -0.011106 3.180693 13.846627
v -0.003514 3.124238 13.820950
v -0.018699 3.124238 13.820950
v -0.003514 3.117083 13.835301
v -0.018699 3.117083 13.835301
v -0.011106 3.268205 13.940380
v -0.021230 3.275723 13.932867
v -0.000983 3.275723 13.932867
v -0.011106 3.283240 13.925354
v -0.003513 3.232316 13.882689
v -0.018699 3.232316 13.882689
v -0.003514 3.222439 13.895316
v -0.018699 3.222439 13.895316
v -0.011106 3.340681 14.064876
v -0.021230 3.350018 14.059391
v -0.000983 3.350018 14.059391
v -0.011106 3.359356 14.053909
v -0.003513 3.324376 13.987394
v -0.018699 3.324376 13.987394
v -0.003513 3.311489 13.996611
v -0.018699 3.311489 13.996611
v -0.011106 3.375044 14.221367
v -0.018699 3.382013 14.216989
v -0.003514 3.382013 14.216989
v -0.011106 3.388981 14.212609
v -0.003513 3.374959 14.122994
v -0.018699 3.387518 14.203252
v -0.003514 3.361024 14.133039
v -0.018699 3.373846 14.213813
v -0.018699 3.361024 14.133039
v -0.003514 3.373846 14.213813
v -0.018699 3.374960 14.122994
v -0.003513 3.387518 14.203252
v -0.011106 3.385646 14.174908
v -0.011106 3.367598 14.190622
v -0.000983 3.376622 14.182765
v -0.021230 3.376622 14.182765
v -0.497674 2.945877 13.712522
v 0.475865 2.945877 13.712522
v 0.475865 2.985493 13.841169
v -0.497674 2.985493 13.841169
v -0.489454 3.021957 13.731589
v 0.468414 3.021957 13.731589
v 0.468414 3.030760 13.822141
v -0.489454 3.030760 13.822141
v 0.369013 3.036771 13.825868
v -0.385808 3.036771 13.825868
v -0.385808 2.943040 13.703309
v 0.369014 2.943040 13.703309
v 0.369013 2.988315 13.850334
v -0.385808 2.988315 13.850334
v -0.385808 3.031112 13.727824
v 0.369014 3.031112 13.727824
v 0.056962 2.988315 13.850334
v 0.040543 3.039263 13.826387
v 0.056962 3.031112 13.727824
v 0.056962 2.943040 13.703309
v -0.062171 3.039263 13.826387
v -0.078260 2.988315 13.850334
v -0.078260 3.031112 13.727824
v -0.078260 2.943040 13.703309
v -0.062171 3.043694 13.777932
v 0.040543 3.043694 13.777932
v 0.475865 3.033947 13.776971
v 0.485445 2.965722 13.776967
v 0.369013 3.043693 13.776972
v -0.508242 2.965722 13.776966
v -0.497674 3.033947 13.776971
v -0.385808 3.043694 13.776972
v -0.002126 3.046044 13.812942
v -0.020087 3.046044 13.812942
v -0.020087 3.046759 13.794010
v -0.002126 3.046759 13.794010
v -0.003514 3.073790 13.817147
v -0.018699 3.073790 13.817147
v -0.018699 3.079158 13.802131
v -0.003514 3.079158 13.802131
v -0.003514 3.170716 13.862452
v -0.018699 3.170716 13.862452
v -0.018699 3.179267 13.848887
v -0.003514 3.179267 13.848887
v -0.003513 3.270084 13.938501
v -0.018699 3.270084 13.938501
v -0.018699 3.281361 13.927232
v -0.003513 3.281361 13.927232
v -0.003513 3.343015 14.063504
v -0.018699 3.343015 14.063504
v -0.018699 3.357021 14.055279
v -0.003513 3.357021 14.055279
v -0.005482 3.376545 14.218307
v -0.016730 3.376545 14.218307
v -0.016730 3.386790 14.211284
v -0.005482 3.386790 14.211284
v -0.018699 3.369854 14.188659
v -0.003514 3.369854 14.188659
v -0.018699 3.383391 14.176872
v -0.003513 3.383391 14.176872
vn -0.0000 0.9571 -0.2898
vn 0.1333 -0.9803 -0.1459
vn 0.6480 -0.7461 -0.1527
vn 0.6886 -0.7243 0.0365
vn 0.1485 -0.9888 0.0126
vn 0.1269 -0.7993 -0.5874
vn 0.4606 -0.7112 -0.5311
vn -0.0000 -0.9888 -0.1494
vn -0.0000 -0.8054 -0.5927
vn -0.0000 -1.0000 -0.0000
vn -0.0000 -0.2775 0.9607
vn -0.0000 -0.1986 0.9801
vn -0.0000 -0.6534 0.7570
vn -0.9602 -0.1729 0.2192
vn -0.6490 -0.2403 0.7219
vn -0.5890 -0.1464 0.7947
vn -0.9725 -0.0345 0.2302
vn -0.6944 -0.6695 0.2638
vn -0.5290 -0.5159 0.6737
vn -0.9874 -0.1571 0.0187
vn -0.7097 -0.7036 0.0345
vn -1.0000 -0.0000 -0.0000
vn 0.1284 -0.4527 -0.8823
vn -0.0000 -0.4595 -0.8882
vn -0.0000 -0.3457 -0.9383
vn 0.1337 -0.3298 -0.9345
vn 0.6411 -0.3815 -0.6659
vn 0.6670 -0.2173 -0.7126
vn 0.9537 -0.1866 0.2360
vn 0.6268 -0.2470 0.7390
vn 0.4960 -0.5298 0.6879
vn 0.6739 -0.6869 0.2720
vn 0.9673 -0.0376 0.2509
vn 0.5684 -0.1486 0.8092
vn 0.9849 -0.1719 0.0204
vn 1.0000 -0.0000 -0.0000
vn -0.1408 -0.4517 -0.8810
vn -0.6620 -0.3714 -0.6510
vn -0.6887 -0.2126 -0.6932
vn -0.1466 -0.3293 -0.9328
vn -0.1389 -0.7981 -0.5864
vn -0.4941 -0.6964 -0.5205
vn 0.0014 -0.4520 -0.8920
vn 0.0053 -0.4336 -0.9011
vn 0.0036 -0.8075 -0.5898
vn 0.0237 -0.8146 -0.5796
vn -0.0020 -0.9906 -0.1368
vn -0.0074 -0.9939 -0.1099
vn -0.0036 -0.8075 -0.5898
vn -0.0234 -0.8147 -0.5794
vn -0.0000 -0.9888 -0.1493
vn -0.1460 -0.9786 -0.1453
vn -0.1626 -0.9866 0.0125
vn -0.6686 -0.7288 -0.1477
vn 0.1226 -0.2763 0.9532
vn 0.1178 -0.1929 0.9741
vn 0.1447 -0.6496 0.7464
vn -0.1345 -0.2756 0.9518
vn -0.1287 -0.1927 0.9728
vn -0.1581 -0.6492 0.7440
vn -0.0014 -0.4520 -0.8920
vn -0.0052 -0.4337 -0.9010
vn -0.0000 -0.9821 0.1886
vn -0.1153 -0.9869 0.1129
vn 0.1153 -0.9869 0.1128
vn -0.0000 -0.6576 0.7534
vn 0.5281 -0.6902 0.4948
vn -0.5281 -0.6902 0.4948
vn 0.0001 -0.4112 -0.9115
vn 0.0002 -0.6881 -0.7256
vn 0.0020 -0.9906 -0.1368
vn 0.0076 -0.9939 -0.1098
vn -0.0000 -0.9678 0.2518
vn 0.1603 -0.9519 0.2610
vn 0.9562 -0.2352 -0.1741
vn 0.9850 -0.0378 -0.1682
vn -0.1750 -0.9498 0.2592
vn -0.9626 -0.2178 -0.1613
vn -0.9875 -0.0346 -0.1538
vn -0.0000 -0.2475 0.9689
vn -0.6945 -0.2125 0.6874
vn 0.6945 -0.2125 0.6874
vn -0.0000 -0.3270 0.9450
vn 0.7085 -0.2308 0.6669
vn -0.7086 -0.2308 0.6668
vn -0.1924 -0.9803 -0.0451
vn -0.1164 -0.9361 -0.3320
vn -0.7443 -0.6676 -0.0157
vn -0.4718 -0.7469 -0.4686
vn 0.1926 -0.9802 -0.0452
vn 0.1167 -0.9361 -0.3319
vn 0.7443 -0.6676 -0.0157
vn 0.4718 -0.7469 -0.4686
vn 0.0001 -0.8977 -0.4407
vn -0.0000 -0.7362 -0.6768
vn -0.0000 -0.4195 0.9078
vn -0.7128 -0.2940 0.6367
vn 0.7128 -0.2940 0.6368
vn -0.0000 -0.4961 0.8683
vn 0.7115 -0.3483 0.6103
vn -0.7115 -0.3482 0.6103
vn -0.9929 -0.1182 0.0147
vn -0.7362 -0.0629 -0.6738
vn -0.9999 -0.0035 0.0113
vn -0.7258 0.2273 -0.6492
vn 0.9929 -0.1182 0.0147
vn 0.7362 -0.0629 -0.6738
vn 0.9999 -0.0035 0.0113
vn 0.7258 0.2273 -0.6492
vn -0.0000 -0.0279 -0.9996
vn -0.0000 0.3307 -0.9437
vn -0.0000 -0.6073 0.7945
vn -0.7067 -0.4295 0.5622
vn 0.7067 -0.4295 0.5623
vn -0.0000 -0.7463 0.6657
vn 0.7028 -0.5316 0.4727
vn -0.7028 -0.5316 0.4727
vn -1.0000 -0.0027 0.0065
vn -0.7231 0.2897 -0.6271
vn -1.0000 -0.0043 0.0083
vn -0.7253 0.3405 -0.5984
vn 1.0000 -0.0027 0.0065
vn 0.7231 0.2897 -0.6271
vn 1.0000 -0.0044 0.0083
vn 0.7253 0.3405 -0.5983
vn -0.0000 0.4193 -0.9079
vn -0.0000 0.4941 -0.8694
vn -0.0000 -0.8595 0.5111
vn -0.7048 -0.6105 0.3614
vn 0.7047 -0.6105 0.3614
vn -0.0000 -0.9367 0.3502
vn 0.7041 -0.6662 0.2458
vn -0.7041 -0.6662 0.2457
vn -0.9999 -0.0098 0.0130
vn -0.7309 0.4137 -0.5428
vn -0.9998 -0.0162 0.0128
vn -0.7332 0.5082 -0.4518
vn 0.9999 -0.0098 0.0130
vn 0.7308 0.4137 -0.5429
vn 0.9998 -0.0162 0.0128
vn 0.7332 0.5082 -0.4518
vn -0.0000 0.6059 -0.7956
vn -0.0000 0.7482 -0.6634
vn -0.0000 -0.9776 0.2104
vn -0.7054 -0.6938 0.1453
vn 0.7053 -0.6938 0.1453
vn -0.0000 -0.9880 0.1544
vn 0.7076 -0.6982 0.1092
vn -0.7076 -0.6981 0.1092
vn -0.9999 -0.0151 0.0076
vn -0.7297 0.5900 -0.3457
vn -0.9998 -0.0180 0.0036
vn -0.7306 0.6421 -0.2323
vn 0.9999 -0.0151 0.0076
vn 0.7296 0.5900 -0.3457
vn 0.9998 -0.0180 0.0036
vn 0.7306 0.6421 -0.2323
vn -0.0000 0.8640 -0.5035
vn -0.0000 0.9418 -0.3361
vn -0.0000 -0.4770 -0.8789
vn 0.7220 -0.3348 -0.6055
vn 0.5542 -0.7711 -0.3134
vn -0.0000 -0.9183 -0.3958
vn -0.0000 0.3971 -0.9178
vn 0.6324 0.2943 -0.7166
vn -0.7220 -0.3348 -0.6055
vn -0.6324 0.2942 -0.7166
vn -0.5542 -0.7711 -0.3135
vn -0.9842 -0.0999 -0.1463
vn -1.0000 -0.0004 -0.0001
vn -0.7077 0.6978 -0.1108
vn -0.7272 0.6116 -0.3116
vn -0.6829 -0.7304 -0.0124
vn 0.9999 -0.0117 -0.0017
vn 0.7189 0.6805 -0.1418
vn 1.0000 -0.0004 -0.0001
vn 0.7077 0.6978 -0.1108
vn -0.0000 0.9220 -0.3872
vn -0.0000 0.9876 -0.1570
vn 0.7272 0.6116 -0.3116
vn -0.0000 -0.9993 0.0384
vn 0.6829 -0.7304 -0.0124
vn -0.0000 0.9799 -0.1995
vn -0.7189 0.6805 -0.1418
vn -0.9999 -0.0117 -0.0017
vn 0.9842 -0.0999 -0.1463
vt 0.000200 0.826300
vt 0.642900 0.826300
vt 0.642900 0.869300
vt 0.000200 0.869300
vt 0.052900 0.733600
vt 0.037300 0.729900
vt 0.040000 0.716800
vt 0.056000 0.720400
vt 0.048700 0.745200
vt 0.037200 0.739400
vt 0.100000 0.744100
vt 0.097100 0.759800
vt 0.102400 0.726600
vt 0.573400 0.665300
vt 0.449700 0.662900
vt 0.450600 0.621200
vt 0.575200 0.625500
vt 0.572800 0.696300
vt 0.449200 0.695500
vt 0.688900 0.671000
vt 0.687000 0.697700
vt 0.693900 0.635000
vt 0.758600 0.701300
vt 0.751700 0.688900
vt 0.768000 0.661100
vt 0.780200 0.681500
vt 0.744500 0.710700
vt 0.742700 0.701100
vt 0.763100 0.718600
vt 0.747500 0.723100
vt 0.787600 0.709300
vt 0.041500 0.758200
vt 0.093000 0.777300
vt 0.087400 0.798700
vt 0.030200 0.775500
vt 0.027200 0.744500
vt 0.010200 0.755900
vt 0.029100 0.694900
vt 0.036400 0.682600
vt 0.045600 0.694900
vt 0.043200 0.704500
vt 0.008100 0.674800
vt 0.020800 0.654600
vt 0.024400 0.712000
vt 0.000200 0.702300
vt 0.746800 0.763600
vt 0.759800 0.751100
vt 0.776800 0.762800
vt 0.758100 0.780900
vt 0.739800 0.750800
vt 0.750200 0.745700
vt 0.696800 0.781800
vt 0.693000 0.764500
vt 0.702200 0.803300
vt 0.212300 0.793000
vt 0.337200 0.799800
vt 0.336100 0.824300
vt 0.210000 0.816600
vt 0.214100 0.773000
vt 0.351300 0.778000
vt 0.574100 0.757500
vt 0.452400 0.759500
vt 0.435500 0.738800
vt 0.573300 0.736900
vt 0.575100 0.775900
vt 0.435400 0.778700
vt 0.690200 0.748900
vt 0.688100 0.731500
vt 0.735700 0.739300
vt 0.732900 0.726100
vt 0.750000 0.736300
vt 0.052800 0.673800
vt 0.042500 0.641600
vt 0.057700 0.695200
vt 0.102800 0.665500
vt 0.104200 0.692400
vt 0.098600 0.629300
vt 0.737100 0.680300
vt 0.748200 0.648400
vt 0.731700 0.701300
vt 0.576500 0.795900
vt 0.578400 0.819500
vt 0.449400 0.800700
vt 0.450100 0.825200
vt 0.393400 0.744500
vt 0.393500 0.734200
vt 0.403800 0.748400
vt 0.383000 0.748200
vt 0.351900 0.738100
vt 0.393400 0.750100
vt 0.386900 0.752500
vt 0.399800 0.752600
vt 0.394100 0.662200
vt 0.339300 0.661900
vt 0.339100 0.620100
vt 0.394500 0.620100
vt 0.393800 0.695100
vt 0.339200 0.694500
vt 0.392900 0.801200
vt 0.392700 0.825800
vt 0.393100 0.782200
vt 0.217600 0.662100
vt 0.216500 0.622100
vt 0.217600 0.693200
vt 0.215300 0.754500
vt 0.216400 0.733800
vt 0.334900 0.758500
vt 0.217200 0.713200
vt 0.103800 0.709300
vt 0.339000 0.715500
vt 0.057900 0.707500
vt 0.572900 0.716300
vt 0.449000 0.716400
vt 0.687000 0.714400
vt 0.023300 0.730100
vt 0.000400 0.732100
vt 0.731100 0.713400
vt 0.393700 0.716200
vt 0.763800 0.736900
vt 0.786900 0.739200
vt 0.393300 0.755600
vt 0.396000 0.756600
vt 0.390700 0.756500
vt 0.393300 0.759200
vt 0.392900 0.759300
vt 0.393700 0.759300
vt 0.407300 0.759300
vt 0.403500 0.770200
vt 0.402200 0.759200
vt 0.399800 0.766000
vt 0.379300 0.759100
vt 0.382900 0.770000
vt 0.384400 0.759100
vt 0.386700 0.765900
vt 0.393200 0.773400
vt 0.393200 0.768300
vt 0.393300 0.759700
vt 0.393300 0.759800
vt 0.397400 0.759300
vt 0.396400 0.762400
vt 0.393900 0.759700
vt 0.393700 0.760100
vt 0.389200 0.759200
vt 0.390100 0.762400
vt 0.392700 0.759700
vt 0.392800 0.760100
vt 0.393300 0.763700
vt 0.393300 0.760300
s 0
usemtl bulb
f 4/1/1 3/2/1 2/3/1 1/4/1
s 1
usemtl lamp
f 5/5/2 66/6/3 198/7/4 106/8/5
f 5/5/2 68/9/6 175/10/7 66/6/3
f 5/5/2 79/11/8 177/12/9 68/9/6
f 5/5/2 106/8/5 199/13/10 79/11/8
f 6/14/11 89/15/11 187/16/12 86/17/12
f 6/14/11 85/18/13 186/19/13 89/15/11
f 6/14/11 82/20/11 183/21/13 85/18/13
f 6/14/11 86/17/12 179/22/12 82/20/11
f 7/23/14 61/24/15 169/25/16 100/26/17
f 7/23/14 99/27/18 173/28/19 61/24/15
f 7/23/14 111/29/20 194/30/21 99/27/18
f 7/23/14 100/26/17 195/31/22 111/29/20
f 8/32/23 77/33/24 181/34/25 62/35/26
f 8/32/23 68/9/6 177/12/9 77/33/24
f 8/32/23 64/36/27 175/10/7 68/9/6
f 8/32/23 62/35/26 171/37/28 64/36/27
f 9/38/29 59/39/30 172/40/31 103/41/32
f 9/38/29 102/42/33 168/43/34 59/39/30
f 9/38/29 108/44/35 197/45/36 102/42/33
f 9/38/29 103/41/32 198/7/4 108/44/35
f 10/46/37 63/47/38 170/48/39 73/49/40
f 10/46/37 69/50/41 174/51/42 63/47/38
f 10/46/37 78/52/24 176/53/9 69/50/41
f 10/46/37 73/49/40 180/54/25 78/52/24
f 11/55/43 94/56/44 189/57/25 83/58/25
f 11/55/43 84/59/45 188/60/46 94/56/44
f 11/55/43 77/33/24 177/12/9 84/59/45
f 11/55/43 83/58/25 181/34/25 77/33/24
f 12/61/47 98/62/48 193/63/10 107/64/10
f 12/61/47 70/65/49 185/66/50 98/62/48
f 12/61/47 80/67/51 176/53/9 70/65/49
f 12/61/47 107/64/10 196/68/10 80/67/51
f 13/69/52 80/67/51 196/68/10 109/70/53
f 13/69/52 69/50/41 176/53/9 80/67/51
f 13/69/52 67/71/54 174/51/42 69/50/41
f 13/69/52 109/70/53 194/30/21 67/71/54
f 14/72/55 59/39/30 168/43/34 71/73/56
f 14/72/55 75/74/57 172/40/31 59/39/30
f 14/72/55 81/75/11 182/76/13 75/74/57
f 14/72/55 71/73/56 178/77/12 81/75/11
f 15/78/58 82/20/11 179/22/12 57/79/59
f 15/78/58 65/80/60 183/21/13 82/20/11
f 15/78/58 61/24/15 173/28/19 65/80/60
f 15/78/58 57/79/59 169/25/16 61/24/15
f 16/81/61 78/52/24 180/54/25 74/82/25
f 16/81/61 70/65/49 176/53/9 78/52/24
f 16/81/61 87/83/62 185/66/50 70/65/49
f 16/81/61 74/82/25 184/84/25 87/83/62
f 17/85/63 110/86/10 193/63/10 116/87/64
f 17/85/63 117/88/65 192/89/10 110/86/10
f 17/85/63 115/90/66 202/91/67 117/88/65
f 17/85/63 116/87/64 203/92/68 115/90/66
f 18/93/11 95/94/11 191/95/12 93/96/12
f 18/93/11 92/97/13 190/98/13 95/94/11
f 18/93/11 89/15/11 186/19/13 92/97/13
f 18/93/11 93/96/12 187/16/12 89/15/11
f 19/99/69 87/83/62 184/84/25 91/100/25
f 19/99/69 90/101/70 185/66/50 87/83/62
f 19/99/69 94/56/44 188/60/46 90/101/70
f 19/99/69 91/100/25 189/57/25 94/56/44
f 20/102/11 81/75/11 178/77/12 72/103/12
f 20/102/11 76/104/13 182/76/13 81/75/11
f 20/102/11 95/94/11 190/98/13 76/104/13
f 20/102/11 72/103/12 191/95/12 95/94/11
f 21/105/71 79/11/8 199/13/10 105/106/10
f 21/105/71 84/59/45 177/12/9 79/11/8
f 21/105/71 97/107/72 188/60/46 84/59/45
f 21/105/71 105/106/10 192/89/10 97/107/72
f 22/108/73 104/109/73 182/76/13 76/104/13
f 22/108/73 105/106/10 199/13/10 104/109/73
f 22/108/73 96/110/73 192/89/10 105/106/10
f 22/108/73 76/104/13 190/98/13 96/110/73
f 23/111/74 103/41/32 172/40/31 75/74/57
f 23/111/74 106/8/5 198/7/4 103/41/32
f 23/111/74 104/109/73 199/13/10 106/8/5
f 23/111/74 75/74/57 182/76/13 104/109/73
f 24/112/73 88/113/73 186/19/13 85/18/13
f 24/112/73 107/64/10 193/63/10 88/113/73
f 24/112/73 101/114/73 196/68/10 107/64/10
f 24/112/73 85/18/13 183/21/13 101/114/73
f 25/115/75 108/44/35 198/7/4 66/6/3
f 25/115/75 58/116/76 197/45/36 108/44/35
f 25/115/75 64/36/27 171/37/28 58/116/76
f 25/115/75 66/6/3 175/10/7 64/36/27
f 26/117/77 101/114/73 183/21/13 65/80/60
f 26/117/77 109/70/53 196/68/10 101/114/73
f 26/117/77 99/27/18 194/30/21 109/70/53
f 26/117/77 65/80/60 173/28/19 99/27/18
f 27/118/73 96/110/73 190/98/13 92/97/13
f 27/118/73 110/86/10 192/89/10 96/110/73
f 27/118/73 88/113/73 193/63/10 110/86/10
f 27/118/73 92/97/13 186/19/13 88/113/73
f 28/119/78 111/29/20 195/31/22 60/120/79
f 28/119/78 67/71/54 194/30/21 111/29/20
f 28/119/78 63/47/38 174/51/42 67/71/54
f 28/119/78 60/120/79 170/48/39 63/47/38
f 29/121/80 115/90/66 203/92/68 124/122/81
f 29/121/80 125/123/82 202/91/67 115/90/66
f 29/121/80 123/124/83 206/125/84 125/123/82
f 29/121/80 124/122/81 207/126/85 123/124/83
f 30/127/86 98/62/48 185/66/50 118/128/87
f 30/127/86 116/87/64 193/63/10 98/62/48
f 30/127/86 114/129/88 203/92/68 116/87/64
f 30/127/86 118/128/87 200/130/89 114/129/88
f 31/131/90 97/107/72 192/89/10 117/88/65
f 31/131/90 119/132/91 188/60/46 97/107/72
f 31/131/90 113/133/92 201/134/93 119/132/91
f 31/131/90 117/88/65 202/91/67 113/133/92
f 32/135/94 90/101/70 188/60/46 119/132/91
f 32/135/94 118/128/87 185/66/50 90/101/70
f 32/135/94 112/136/95 200/130/89 118/128/87
f 32/135/94 119/132/91 201/134/93 112/136/95
f 33/137/96 123/124/83 207/126/85 132/137/97
f 33/137/96 133/137/98 206/125/84 123/124/83
f 33/137/96 131/138/99 210/138/100 133/137/98
f 33/137/96 132/137/97 211/138/101 131/138/99
f 34/139/102 114/129/88 200/130/89 126/140/103
f 34/139/102 124/122/81 203/92/68 114/129/88
f 34/139/102 122/141/104 207/126/85 124/122/81
f 34/139/102 126/140/103 204/142/105 122/141/104
f 35/143/106 113/133/92 202/91/67 125/123/82
f 35/143/106 127/144/107 201/134/93 113/133/92
f 35/143/106 121/145/108 205/146/109 127/144/107
f 35/143/106 125/123/82 206/125/84 121/145/108
f 36/147/110 112/136/95 201/134/93 127/144/107
f 36/147/110 126/140/103 200/130/89 112/136/95
f 36/147/110 120/148/111 204/142/105 126/140/103
f 36/147/110 127/144/107 205/146/109 120/148/111
f 37/138/112 131/138/99 211/138/101 140/138/113
f 37/138/112 141/138/114 210/138/100 131/138/99
f 37/138/112 139/138/115 214/138/116 141/138/114
f 37/138/112 140/138/113 215/138/117 139/138/115
f 38/138/118 122/141/104 204/142/105 134/138/119
f 38/138/118 132/137/97 207/126/85 122/141/104
f 38/138/118 130/138/120 211/138/101 132/137/97
f 38/138/118 134/138/119 208/138/121 130/138/120
f 39/138/122 121/145/108 206/125/84 133/137/98
f 39/138/122 135/138/123 205/146/109 121/145/108
f 39/138/122 129/138/124 209/138/125 135/138/123
f 39/138/122 133/137/98 210/138/100 129/138/124
f 40/138/126 120/148/111 205/146/109 135/138/123
f 40/138/126 134/138/119 204/142/105 120/148/111
f 40/138/126 128/138/127 208/138/121 134/138/119
f 40/138/126 135/138/123 209/138/125 128/138/127
f 41/138/128 139/138/115 215/138/117 148/138/129
f 41/138/128 149/138/130 214/138/116 139/138/115
f 41/138/128 147/138/131 218/138/132 149/138/130
f 41/138/128 148/138/129 219/138/133 147/138/131
f 42/138/134 130/138/120 208/138/121 142/138/135
f 42/138/134 140/138/113 211/138/101 130/138/120
f 42/138/134 138/138/136 215/138/117 140/138/113
f 42/138/134 142/138/135 212/138/137 138/138/136
f 43/138/138 129/138/124 210/138/100 141/138/114
f 43/138/138 143/138/139 209/138/125 129/138/124
f 43/138/138 137/138/140 213/138/141 143/138/139
f 43/138/138 141/138/114 214/138/116 137/138/140
f 44/138/142 128/138/127 209/138/125 143/138/139
f 44/138/142 142/138/135 208/138/121 128/138/127
f 44/138/142 136/138/143 212/138/137 142/138/135
f 44/138/142 143/138/139 213/138/141 136/138/143
f 45/138/144 147/138/131 219/138/133 156/138/145
f 45/138/144 162/138/146 218/138/132 147/138/131
f 45/138/144 164/138/147 226/138/148 162/138/146
f 45/138/144 156/138/145 227/138/149 164/138/147
f 46/138/150 138/138/136 212/138/137 150/138/151
f 46/138/150 148/138/129 215/138/117 138/138/136
f 46/138/150 146/138/152 219/138/133 148/138/129
f 46/138/150 150/138/151 216/138/153 146/138/152
f 47/138/154 137/138/140 214/138/116 149/138/130
f 47/138/154 151/138/155 213/138/141 137/138/140
f 47/138/154 145/138/156 217/138/157 151/138/155
f 47/138/154 149/138/130 218/138/132 145/138/156
f 48/138/158 136/138/143 213/138/141 151/138/155
f 48/138/158 150/138/151 212/138/137 136/138/143
f 48/138/158 144/138/159 216/138/153 150/138/151
f 48/138/158 151/138/155 217/138/157 144/138/159
f 49/138/160 153/138/161 222/138/162 155/138/163
f 49/138/160 152/138/164 221/138/165 153/138/161
f 49/138/160 154/138/166 220/138/167 152/138/164
f 49/138/160 155/138/163 223/138/168 154/138/166
f 50/138/169 166/138/170 225/138/171 161/138/172
f 50/138/169 163/138/173 227/138/149 166/138/170
f 50/138/169 154/138/166 223/138/168 163/138/173
f 50/138/169 161/138/172 220/138/167 154/138/166
f 51/138/174 145/138/156 218/138/132 162/138/146
f 51/138/174 160/138/175 217/138/157 145/138/156
f 51/138/174 167/138/176 224/138/177 160/138/175
f 51/138/174 162/138/146 226/138/148 167/138/176
f 52/138/178 165/138/179 224/138/177 159/138/180
f 52/138/178 161/138/172 225/138/171 165/138/179
f 52/138/178 152/138/164 220/138/167 161/138/172
f 52/138/178 159/138/180 221/138/165 152/138/164
f 53/138/181 164/138/147 227/138/149 163/138/173
f 53/138/181 157/138/182 226/138/148 164/138/147
f 53/138/181 155/138/163 222/138/162 157/138/182
f 53/138/181 163/138/173 223/138/168 155/138/163
f 54/138/183 144/138/159 217/138/157 160/138/175
f 54/138/183 158/138/184 216/138/153 144/138/159
f 54/138/183 165/138/179 225/138/171 158/138/184
f 54/138/183 160/138/175 224/138/177 165/138/179
f 55/138/185 146/138/152 216/138/153 158/138/184
f 55/138/185 156/138/145 219/138/133 146/138/152
f 55/138/185 166/138/170 227/138/149 156/138/145
f 55/138/185 158/138/184 225/138/171 166/138/170
f 56/138/186 167/138/176 226/138/148 157/138/182
f 56/138/186 159/138/180 224/138/177 167/138/176
f 56/138/186 153/138/161 221/138/165 159/138/180
f 56/138/186 157/138/182 222/138/162 153/138/161
